<svg width="492" height="491" viewBox="0 0 492 491" fill="none" xmlns="http://www.w3.org/2000/svg">
    <path d="M344.058 76.5123L268.062 206.746" stroke="#E6E0E9" stroke-width="0.999999" />
    <path d="M383.757 107.678L330.667 160.499" stroke="#E6E0E9" stroke-width="0.999999" />
    <path d="M416.425 147.453L371.551 172.266" stroke="#E6E0E9" stroke-width="0.999999" />
    <path d="M435.556 194.619L386.573 208.111" stroke="#E6E0E9" stroke-width="0.999999" />
    <path d="M348.271 142.983C381.508 175.13 390.256 209.666 391.174 244.966H265.625" stroke="#E6E0E9"
        stroke-width="0.999999" />
    <path
        d="M280.996 184.581C289.337 190.405 297.628 195.844 307.125 210.92L327.972 198.964C335.512 209.158 340.948 222.73 340.986 244.966"
        stroke="#E6E0E9" stroke-width="0.999999" />
    <path d="M391.174 244.966L416.171 245.466C416.335 262.069 413.843 276.281 410.052 289.325L361.99 276.617"
        stroke="#E6E0E9" stroke-width="0.999999" />
    <path d="M327.749 292.145L393.646 330.709" stroke="#E6E0E9" stroke-width="0.999999" />
    <path d="M371.899 317.982C354.72 344.595 331.408 369.216 283.947 385.996L289.975 409.203" stroke="#E6E0E9"
        stroke-width="0.999999" />
    <path d="M263.792 312.668L271.156 337.212C278.585 334.414 286.029 331.512 293.615 327.544L318.148 370.408"
        stroke="#E6E0E9" stroke-width="0.999999" />
    <path d="M295.301 294.28L331.041 330.039C307.454 351.328 280.483 365.595 246.222 364.743L246.318 390.161"
        stroke="#E6E0E9" stroke-width="0.999999" />
    <path d="M246.222 364.743C234.656 365.041 224.331 363.168 214.34 360.711L241.591 263.767" stroke="#E6E0E9"
        stroke-width="0.999999" />
    <path
        d="M214.34 360.711C204.185 357.679 194.897 353.779 186.527 348.961L198.574 327.395C191.327 323.449 185.363 318.247 179.301 312.524L214.774 276.617C217.323 279.207 220.219 281.623 223.561 283.816L236.604 261.579"
        stroke="#E6E0E9" stroke-width="0.999999" />
    <path d="M161.377 391.918L186.527 348.961" stroke="#E6E0E9" stroke-width="0.999999" />
    <path d="M126.438 365.099L179.301 312.524" stroke="#E6E0E9" stroke-width="0.999999" />
    <path d="M81.2372 288.957L179.446 262.707" stroke="#E6E0E9" stroke-width="0.999999" />
    <path
        d="M102.79 245.38L176.206 244.966C177.415 229.216 181.026 218.508 186.197 211.078L207.494 223.646C217.233 210.593 229.471 201.618 246.726 200.829"
        stroke="#E6E0E9" stroke-width="0.999999" />
    <path d="M144.224 347.41C115.93 317.72 110.995 299.901 106.343 282.226" stroke="#E6E0E9" stroke-width="0.999999" />
    <path
        d="M130.342 275.832C131.864 283.579 134.969 292.562 142.799 305.234L164.217 292.591C168.458 299.236 173.093 305.88 179.301 312.524"
        stroke="#E6E0E9" stroke-width="0.999999" />
    <path d="M150.979 244.966C151.492 253.245 151.98 261.161 154.791 269.092" stroke="#E6E0E9"
        stroke-width="0.999999" />
    <path
        d="M126.765 244.935C126.475 234.671 127.768 224.672 129.851 214.804L154.759 220.456C172.766 173.405 197.15 164.219 221.33 153.823L228.618 178.067L210.77 185.206L224.751 206.998"
        stroke="#E6E0E9" stroke-width="0.999999" />
    <path d="M142.762 184.838L186.197 211.078" stroke="#E6E0E9" stroke-width="0.999999" />
    <path d="M186.302 141.087L199.281 164.137" stroke="#E6E0E9" stroke-width="0.999999" />
    <path d="M295.301 294.28L277.998 276.617C270.852 283.069 263.924 286.684 257.175 287.981L251.375 263.631"
        stroke="#E6E0E9" stroke-width="0.999999" />
    <path d="M178.855 226.484L228.444 240.065" stroke="#E6E0E9" stroke-width="0.999999" />
    <path
        d="M9.30066 309.044C18.404 346.675 38.4856 383.33 72.8201 418.717L126.438 365.099C108.875 347.662 92.6758 325.883 81.2372 288.957L57.3063 295.307"
        stroke="#E6E0E9" stroke-width="0.999999" />
    <path
        d="M72.8201 418.717C105.364 451.818 144.192 471.841 182.306 482.049L195.452 433.25C179.423 429.422 163.998 422.271 148.757 414.109L161.377 391.918C148.922 383.95 136.924 375.431 126.438 365.099"
        stroke="#E6E0E9" stroke-width="0.999999" />
    <path
        d="M182.306 482.049C199.39 486.411 216.727 490.677 246.223 490.384L246.276 465.485C268.245 464.813 288.231 462.928 303.094 457.913L296.889 434.355C281.949 437.728 265.155 439.804 246.249 440.402L246.318 390.161C232.025 390.026 219.411 388.213 208.688 384.509L195.452 433.25"
        stroke="#E6E0E9" stroke-width="0.999999" />
    <path
        d="M246.223 490.384C287.126 490.504 328.028 481.378 368.931 457.334L331.332 392.549C305.046 407.348 276.535 414.36 246.284 415.281"
        stroke="#E6E0E9" stroke-width="0.999999" />
    <path
        d="M368.931 457.334C387.761 446.498 404.357 432.931 419.623 417.738L384.706 383.557C396.959 371.26 406.162 357.269 414.89 343.014L393.646 330.709C366.439 372.308 349.867 379.229 331.332 392.549"
        stroke="#E6E0E9" stroke-width="0.999999" />
    <path
        d="M419.623 417.738C451.115 386.642 471.834 350.059 482.305 308.255L410.052 289.325C405.72 304.256 400.736 318.536 393.646 330.709"
        stroke="#E6E0E9" stroke-width="0.999999" />
    <path
        d="M482.304 308.255C497.951 245.243 493.851 189.541 457.432 122.787L437.554 135.618C447.326 152.821 455.048 170.23 459.22 187.993L435.556 194.619C439.159 211.411 441.518 228.203 441.761 244.995H466.792C466.408 264.446 465.338 283.771 458.873 302.116"
        stroke="#E6E0E9" stroke-width="0.999999" />
    <path
        d="M457.432 122.787C438.427 90.1969 409.146 57.0144 368.457 33.708L344.058 76.5124C381.162 103.565 418.669 129.865 435.556 194.619"
        stroke="#E6E0E9" stroke-width="0.999999" />
    <path
        d="M368.457 33.708C336.962 15.7411 299.749 2.01302 245.385 1V25.715C266.134 25.7577 286.675 26.1398 303.147 33.1821L296.626 56.2145C312.978 60.8155 328.894 67.1596 344.058 76.5123"
        stroke="#E6E0E9" stroke-width="0.999999" />
    <path d="M245.385 1C190.355 1.55586 155.222 16.1564 123.761 33.3492" stroke="#E6E0E9" stroke-width="0.999999" />
    <path d="M195.926 56.7666C237.371 44.9158 266.931 50.6642 296.626 56.2145" stroke="#E6E0E9"
        stroke-width="0.999999" />
    <path
        d="M202.656 81.2976L214.909 129.308C205.373 132.449 195.838 135.742 186.302 141.087L173.997 120.211C161.153 126.775 151.73 134.669 143.919 143.19L126.44 125.596"
        stroke="#E6E0E9" stroke-width="0.999999" />
    <path
        d="M143.919 143.19L161.272 160.089C154.714 167.756 148.219 175.519 142.762 184.838L120.992 173.374C114.17 183.112 109.506 194.992 105.847 207.87L81.9208 201.402"
        stroke="#E6E0E9" stroke-width="0.999999" />
    <path
        d="M105.847 207.87C104.632 216.894 103.25 222.961 102.79 245.38H75.9434C75.5726 259.666 77.2974 274.11 81.2371 288.957"
        stroke="#E6E0E9" stroke-width="0.999999" />
    <path
        d="M246.253 49.3293V75.292C266.853 75.6023 277.991 78.4109 289.301 81.174L283.65 104.89C273.611 102.362 262.144 100.447 246.253 100.428V226.484"
        stroke="#E6E0E9" stroke-width="0.999999" />
    <path
        d="M246.645 264.452C257.131 264.452 265.632 255.951 265.632 245.466C265.632 234.98 257.131 226.48 246.645 226.48C236.16 226.48 227.659 234.98 227.659 245.466C227.659 255.951 236.16 264.452 246.645 264.452Z"
        stroke="#E6E0E9" stroke-width="1.03555" stroke-linecap="round" stroke-linejoin="round" />
    <path
        d="M214.909 129.308C294.041 107.085 386.312 176.996 361.99 276.617L337.537 270.447C335.76 279.165 331.87 285.77 327.749 292.145L306.703 279.875C310.644 273.795 312.033 268.444 313.248 263.142L289.413 257.39C297.426 225.506 273.266 201.033 246.726 200.829"
        stroke="#E6E0E9" stroke-width="0.999999" />
    <path
        d="M72.7184 72.9365L126.44 125.596C144.323 105.383 170.752 90.8552 202.656 81.2976L189.195 32.2356C174.338 36.7177 158.92 41.7217 135.883 53.8L123.761 33.3492C105.527 44.5931 88.1576 57.2206 72.7184 72.9365Z"
        stroke="#E6E0E9" stroke-width="0.999999" />
    <path
        d="M72.7184 72.9365C34.8553 111.86 19.3918 147.457 9.61615 182.209L32.964 188.203C41.5949 163.693 49.661 143.075 55.786 135.828L99.1161 160.333C106.604 147.944 114.534 135.776 126.44 125.596"
        stroke="#E6E0E9" stroke-width="0.999999" />
    <path
        d="M9.61618 182.209C4.55078 199.381 1.67161 220.38 1.09338 245.406H50.4223C51.448 228.165 53.4213 211.268 57.5213 195.145L81.9208 201.402C86.4746 186.796 92.0406 172.978 99.1162 160.333"
        stroke="#E6E0E9" stroke-width="0.999999" />
    <path
        d="M1.09336 245.406C0.304688 267.5 4.63976 288.313 9.30064 309.044L33.1217 302.892C39.7268 325.35 47.5345 341.195 55.7157 354.985L77.3564 342.045C64.1484 321.425 53.0159 295.117 50.4223 245.406"
        stroke="#E6E0E9" stroke-width="0.999999" />
    <path d="M306.703 279.875C268.062 340.565 190.587 313.554 179.446 262.707L202.59 256.747L201.698 245.466H227.659"
        stroke="#E6E0E9" stroke-width="0.999999" />
</svg>